<svg width="160" height="40" viewBox="0 0 160 40" fill="none" xmlns="http://www.w3.org/2000/svg">
<path fill-rule="evenodd" clip-rule="evenodd" d="M75.2358 29.2741C73.9006 30.5758 72.2793 31.2266 70.3718 31.2266C68.4644 31.2266 66.8474 30.5758 65.5208 29.2741C64.1943 27.9725 63.531 26.3712 63.531 24.4701C63.531 22.5691 64.1943 20.9678 65.5208 19.6661C66.8474 18.3645 68.4644 17.7137 70.3718 17.7137C72.2793 17.7137 73.9006 18.3645 75.2358 19.6661C76.571 20.9678 77.2386 22.5691 77.2386 24.4701C77.2386 26.3712 76.571 27.9725 75.2358 29.2741ZM70.4752 19.7114C73.1344 19.7114 75.2934 21.8437 75.2934 24.4701C75.2934 27.0966 73.1344 29.2289 70.4752 29.2289C67.8159 29.2289 65.657 27.0966 65.657 24.4701C65.657 21.8437 67.8159 19.7114 70.4752 19.7114Z" fill="white"/>
<path d="M50.2552 25.8976C50.1831 25.8976 50.1142 25.9275 50.0653 25.9799C50.0164 26.0324 49.992 26.1026 49.998 26.1737C50.249 28.8229 52.6521 31.0732 56.3883 31.0732C59.8126 31.0732 62.2511 29.1259 62.2511 26.0513C62.2511 23.3355 60.6427 21.7469 57.841 20.7477L55.4804 19.9022C53.6904 19.2616 52.8343 18.493 52.8343 16.9557C52.8343 15.444 54.2092 14.496 55.9733 14.496C57.4279 14.496 58.8826 15.2385 59.3995 17.0011C59.4311 17.1103 59.5321 17.1856 59.6471 17.1856C60.0675 17.1863 61.0522 17.1863 61.5448 17.1863C61.6195 17.1863 61.6905 17.1544 61.7395 17.0987C61.7886 17.043 61.8108 16.9691 61.8005 16.896C61.4502 14.6022 59.6094 12.267 56.0251 12.267C52.8089 12.267 50.4226 14.0599 50.4218 17.031C50.4218 17.0319 50.4218 17.0328 50.4218 17.0337C50.4481 19.5947 51.8226 21.1572 54.6747 22.1563C54.6756 22.1567 54.6765 22.157 54.6774 22.1573C54.7409 22.1804 57.2172 23.0788 57.2184 23.0793C57.2182 23.0792 57.2186 23.0793 57.2184 23.0793C58.9302 23.6942 59.8385 24.6936 59.8385 26.1282C59.8385 27.8192 58.282 28.8441 56.3624 28.8441C54.6868 28.8441 52.7461 27.9869 52.4227 26.1118C52.4024 25.9892 52.2952 25.8991 52.1694 25.8991C51.7259 25.8976 50.7371 25.8976 50.2552 25.8976Z" fill="white"/>
<path d="M85.1636 14.4685C85.1636 14.5381 85.1348 14.6046 85.0839 14.6527C85.033 14.7008 84.9644 14.7263 84.8941 14.7233C82.7848 14.6313 81.7302 15.6132 81.7302 17.6683V17.7987C81.7302 17.8663 81.7574 17.9311 81.8058 17.9789C81.8542 18.0268 81.9199 18.0536 81.9884 18.0536C82.6257 18.0536 84.2681 18.0536 84.9054 18.0536C84.9739 18.0536 85.0395 18.0805 85.088 18.1283C85.1364 18.1761 85.1636 18.241 85.1636 18.3086C85.1636 18.7238 85.1636 19.5414 85.1636 19.9566C85.1636 20.0242 85.1364 20.0891 85.088 20.1369C85.0395 20.1847 84.9739 20.2116 84.9054 20.2116C84.2681 20.2116 82.6257 20.2116 81.9884 20.2116C81.9199 20.2116 81.8542 20.2384 81.8058 20.2863C81.7574 20.3341 81.7302 20.3989 81.7302 20.4666C81.7302 21.924 81.7302 29.1861 81.7302 30.6436C81.7302 30.7112 81.703 30.776 81.6546 30.8239C81.6061 30.8717 81.5405 30.8985 81.472 30.8985H79.7254C79.657 30.8985 79.5913 30.8717 79.5429 30.8239C79.4945 30.776 79.4673 30.7112 79.4673 30.6436V17.6683C79.4673 15.9385 79.9571 14.6283 80.9369 13.7377C81.8723 12.8874 83.1989 12.4977 84.9167 12.5685C85.0547 12.5745 85.1634 12.6867 85.1634 12.8231C85.1636 13.2286 85.1636 14.0439 85.1636 14.4685Z" fill="white"/>
<path d="M93.5036 19.9532C93.5036 20.0208 93.4764 20.0857 93.4279 20.1335C93.3795 20.1813 93.3139 20.2082 93.2454 20.2082H90.3023C90.2338 20.2082 90.1682 20.235 90.1197 20.2829C90.0713 20.3307 90.0441 20.3955 90.0441 20.4632V27.1701C90.0441 27.8038 90.1699 28.2534 90.4213 28.5188C90.6727 28.7843 91.0586 28.9213 91.5788 28.9299C92.0368 28.9374 92.5889 28.9283 93.235 28.9027C93.3052 28.8999 93.3736 28.9255 93.4242 28.9736C93.4749 29.0217 93.5035 29.0881 93.5035 29.1575C93.5036 29.5552 93.5036 30.2977 93.5036 30.67C93.5036 30.7992 93.4057 30.908 93.2758 30.9232C91.4152 31.1391 90.0432 30.9714 89.1598 30.4199C88.2407 29.8461 87.7812 28.7629 87.7812 27.1701V15.3115C87.7812 15.1988 87.8561 15.0995 87.9655 15.0672C88.3471 14.9546 89.2286 14.6944 89.7121 14.5517C89.7902 14.5286 89.8748 14.5434 89.9402 14.5915C90.0056 14.6396 90.0441 14.7154 90.0441 14.796C90.0441 15.5136 90.0441 17.1613 90.0441 17.7953C90.0441 17.8629 90.0713 17.9277 90.1197 17.9755C90.1682 18.0234 90.2338 18.0502 90.3023 18.0502C90.9437 18.0502 92.604 18.0502 93.2454 18.0502C93.3139 18.0502 93.3795 18.0771 93.4279 18.1249C93.4764 18.1727 93.5036 18.2376 93.5036 18.3052C93.5036 18.7204 93.5036 19.538 93.5036 19.9532Z" fill="white"/>
<path d="M114.882 30.2181C114.991 30.338 115.018 30.5098 114.951 30.6568C114.885 30.8038 114.737 30.8985 114.574 30.8985C113.884 30.8985 112.998 30.8985 112.621 30.8985C112.505 30.8985 112.394 30.8501 112.315 30.7651C111.5 29.8807 106.853 24.8372 105.047 22.8761C104.932 22.7515 104.751 22.7094 104.592 22.7702C104.433 22.831 104.328 22.9822 104.328 23.1507C104.328 25.1001 104.328 29.188 104.328 30.4906C104.328 30.5988 104.284 30.7025 104.207 30.779C104.13 30.8555 104.024 30.8985 103.915 30.8985C103.452 30.8985 102.706 30.8985 102.244 30.8985C102.134 30.8985 102.029 30.8555 101.951 30.779C101.874 30.7025 101.83 30.5988 101.83 30.4906C101.83 28.0503 101.83 15.4085 101.83 12.9683C101.83 12.8601 101.874 12.7563 101.951 12.6798C102.029 12.6033 102.134 12.5603 102.244 12.5603C102.706 12.5603 103.452 12.5603 103.915 12.5603C104.024 12.5603 104.13 12.6033 104.207 12.6798C104.284 12.7563 104.328 12.8601 104.328 12.9683C104.328 14.2097 104.328 17.9683 104.328 19.8055C104.328 19.973 104.432 20.1235 104.589 20.185C104.747 20.2465 104.927 20.2065 105.043 20.0842C106.801 18.2279 111.252 13.5288 112.047 12.6896C112.125 12.6071 112.235 12.5603 112.349 12.5603C112.721 12.5603 113.6 12.5603 114.29 12.5603C114.454 12.5603 114.602 12.6561 114.668 12.8044C114.734 12.9527 114.705 13.1254 114.594 13.2446C112.896 15.0671 108.316 19.9829 107.187 21.1947C107.043 21.3494 107.041 21.5869 107.184 21.7434C108.338 23.0137 113.156 28.3184 114.882 30.2181Z" fill="white"/>
<path d="M119.261 19.2716C119.261 19.3815 119.333 19.4791 119.438 19.5136C119.544 19.5482 119.66 19.512 119.727 19.4239C120.471 18.4137 121.58 17.8808 123.051 17.8239C123.121 17.8214 123.189 17.8471 123.24 17.8951C123.29 17.943 123.319 18.0092 123.319 18.0783C123.319 18.5277 123.319 19.4462 123.319 19.8962C123.319 19.9639 123.292 20.0288 123.243 20.0766C123.195 20.1244 123.129 20.1513 123.061 20.1512C122.06 20.153 121.193 20.4461 120.458 21.03C119.66 21.6637 119.261 22.6827 119.261 24.0871V30.6399C119.261 30.7808 119.146 30.8949 119.003 30.8949C118.568 30.8949 117.692 30.8949 117.257 30.8949C117.114 30.8949 116.998 30.7808 116.998 30.6399C116.998 28.9993 116.998 19.9456 116.998 18.305C116.998 18.1642 117.114 18.05 117.257 18.05C117.692 18.05 118.568 18.05 119.003 18.05C119.072 18.05 119.137 18.0769 119.186 18.1247C119.234 18.1725 119.261 18.2374 119.261 18.305C119.261 18.5447 119.261 18.9185 119.261 19.2716Z" fill="white"/>
<path d="M129.958 17.7515C129.962 17.7511 129.966 17.7506 129.97 17.7501C130.299 17.702 130.637 17.677 130.981 17.677C132.561 17.677 134.018 18.2048 135.181 19.0917C135.259 19.1514 135.364 19.1623 135.452 19.1197C135.541 19.077 135.597 18.9883 135.597 18.8911C135.598 18.6888 135.598 18.4688 135.598 18.3045C135.598 18.2369 135.625 18.172 135.673 18.1242C135.722 18.0764 135.787 18.0495 135.856 18.0495C136.291 18.0495 137.167 18.0495 137.602 18.0495C137.671 18.0495 137.736 18.0764 137.785 18.1242C137.833 18.172 137.86 18.2369 137.86 18.3045V30.6395C137.86 30.7071 137.833 30.772 137.785 30.8198C137.736 30.8676 137.671 30.8945 137.602 30.8945H135.856C135.787 30.8945 135.722 30.8676 135.673 30.8198C135.625 30.772 135.598 30.7071 135.598 30.6395V30.0529C135.598 29.9554 135.541 29.8665 135.453 29.8238C135.364 29.781 135.258 29.7919 135.181 29.8518C134.018 30.7392 132.561 31.267 130.981 31.267C130.637 31.267 130.299 31.242 129.97 31.1939C129.966 31.1934 129.962 31.1929 129.958 31.1925C128.446 31.0394 127.135 30.3963 126.026 29.2632C124.742 27.953 124.101 26.3559 124.101 24.472C124.101 22.5881 124.742 20.991 126.026 19.6808C127.135 18.5477 128.446 17.9046 129.958 17.7515ZM130.968 29.0705C132.285 29.0705 133.387 28.6295 134.271 27.7475C135.155 26.8654 135.598 25.7736 135.598 24.472C135.598 23.1704 135.155 22.0786 134.271 21.1965C133.387 20.3145 132.285 19.8735 130.968 19.8735C129.667 19.8735 128.575 20.3145 127.69 21.1965C126.806 22.0786 126.364 23.1704 126.364 24.472C126.364 25.7736 126.806 26.8654 127.69 27.7475C128.575 28.6295 129.667 29.0705 130.968 29.0705Z" fill="white"/>
<path d="M146.655 14.4685C146.655 14.5381 146.626 14.6046 146.575 14.6527C146.524 14.7008 146.456 14.7263 146.385 14.7233C144.276 14.6313 143.221 15.6132 143.221 17.6683V17.7987C143.221 17.8663 143.249 17.9311 143.297 17.9789C143.345 18.0268 143.411 18.0536 143.48 18.0536C144.117 18.0536 145.759 18.0536 146.397 18.0536C146.465 18.0536 146.531 18.0805 146.579 18.1283C146.628 18.1761 146.655 18.241 146.655 18.3086C146.655 18.7238 146.655 19.5414 146.655 19.9566C146.655 20.0242 146.628 20.0891 146.579 20.1369C146.531 20.1847 146.465 20.2116 146.397 20.2116C145.759 20.2116 144.117 20.2116 143.48 20.2116C143.411 20.2116 143.345 20.2384 143.297 20.2863C143.249 20.3341 143.221 20.3989 143.221 20.4666C143.221 21.924 143.221 29.1861 143.221 30.6436C143.221 30.7112 143.194 30.776 143.146 30.8239C143.097 30.8717 143.032 30.8985 142.963 30.8985C142.528 30.8985 141.652 30.8985 141.217 30.8985C141.148 30.8985 141.082 30.8717 141.034 30.8239C140.986 30.776 140.958 30.7112 140.958 30.6436V17.6683C140.958 15.9385 141.448 14.6283 142.428 13.7377C143.363 12.8874 144.69 12.4977 146.408 12.5685C146.546 12.5745 146.655 12.6867 146.655 12.8231C146.655 13.2286 146.655 14.0439 146.655 14.4685Z" fill="white"/>
<path d="M154.997 19.9532C154.997 20.0208 154.97 20.0857 154.921 20.1335C154.873 20.1813 154.807 20.2082 154.739 20.2082C154.098 20.2082 152.437 20.2082 151.796 20.2082C151.727 20.2082 151.662 20.235 151.613 20.2829C151.565 20.3307 151.538 20.3955 151.538 20.4632V27.1701C151.538 27.8038 151.663 28.2534 151.915 28.5188C152.166 28.7843 152.552 28.9213 153.072 28.9299C153.53 28.9374 154.082 28.9283 154.729 28.9027C154.799 28.8999 154.867 28.9255 154.918 28.9736C154.968 29.0217 154.997 29.0881 154.997 29.1575C154.997 29.5552 154.997 30.2977 154.997 30.67C154.997 30.7992 154.899 30.908 154.769 30.9232C152.909 31.1391 151.537 30.9714 150.653 30.4199C149.734 29.8461 149.275 28.7629 149.275 27.1701V15.3115C149.275 15.1988 149.35 15.0995 149.459 15.0672C149.841 14.9546 150.722 14.6944 151.206 14.5517C151.284 14.5286 151.368 14.5434 151.434 14.5915C151.499 14.6396 151.538 14.7154 151.538 14.796C151.538 15.5136 151.538 17.1613 151.538 17.7953C151.538 17.8629 151.565 17.9277 151.613 17.9755C151.662 18.0234 151.727 18.0502 151.796 18.0502C152.437 18.0502 154.098 18.0502 154.739 18.0502C154.807 18.0502 154.873 18.0771 154.921 18.1249C154.97 18.1727 154.997 18.2376 154.997 18.3052C154.997 18.7204 154.997 19.538 154.997 19.9532Z" fill="white"/>
<path fill-rule="evenodd" clip-rule="evenodd" d="M5.66246 18.1205C5.60354 18.1205 5.54716 18.0966 5.50625 18.0542C5.46533 18.0118 5.4434 17.9546 5.4455 17.8957C5.58958 14.4741 8.41257 11.7404 11.869 11.7404C13.447 11.7404 14.893 12.3102 16.0122 13.2551C16.038 13.2771 16.0726 13.2858 16.1057 13.2786C16.1388 13.2714 16.1666 13.2491 16.1809 13.2184C17.4823 10.4513 20.2956 8.53394 23.5533 8.53394C27.5516 8.53394 30.8806 11.4223 31.5658 15.2239C31.5737 15.2686 31.6088 15.3037 31.6535 15.3116C35.4551 15.9968 38.3435 19.3258 38.3435 23.3241C38.3435 27.8177 34.6953 31.466 30.2017 31.466C30.1163 31.466 30.0312 31.4646 29.947 31.462V31.466H6.6484C4.68788 31.466 2.92443 30.6155 1.70725 29.2639C1.69304 29.2479 1.68952 29.2251 1.69826 29.2057C1.70699 29.1862 1.72636 29.1736 1.7477 29.1736C2.21834 29.1735 3.93185 29.1734 4.40672 29.1733C4.48714 29.1733 4.56614 29.1521 4.63578 29.1119C5.28627 28.7364 8.72239 26.7525 9.35628 26.3866C9.42217 26.3485 9.49692 26.3285 9.573 26.3285C10.8893 26.3289 11.8618 26.3293 12.2924 26.3299C12.4346 26.3299 12.5671 26.4018 12.6445 26.5211C12.8988 26.9094 13.3378 27.1662 13.8362 27.1662C14.6218 27.1662 15.2596 26.5284 15.2596 25.7428C15.2596 24.9572 14.6218 24.3194 13.8362 24.3194C13.3378 24.3194 12.8988 24.5762 12.6471 24.9662C12.5691 25.0864 12.4357 25.1589 12.2924 25.1589C12.2924 25.1589 1.83756 25.1589 0.218235 25.1589C0.0998763 25.1589 0.00333442 25.0641 0.00117226 24.9458C0.000403777 24.9031 0 24.8604 0 24.8176C0 24.2629 0.068056 23.7241 0.196223 23.2091C0.220671 23.1129 0.307248 23.0456 0.406447 23.0456C6.42519 23.0456 18.4832 23.0462 20.3508 23.0485C20.493 23.0485 20.6255 23.1205 20.7029 23.2398C20.9572 23.6281 21.3961 23.8849 21.8946 23.8849C22.6802 23.8849 23.318 23.2471 23.318 22.4615C23.318 21.6759 22.6802 21.0381 21.8946 21.0381C21.3961 21.0381 20.9572 21.2948 20.7055 21.6849C20.6275 21.805 20.4941 21.8775 20.3508 21.8776C20.3508 21.8776 2.82025 21.8776 0.861934 21.8776C0.824005 21.8776 0.788812 21.8578 0.769144 21.8253C0.749463 21.7929 0.748147 21.7525 0.765666 21.7189C1.26778 20.7688 1.99312 19.9547 2.87163 19.3467C2.92585 19.3095 2.99008 19.2895 3.05585 19.2896C6.62006 19.2898 9.60572 19.2905 10.4599 19.2915C10.6021 19.2915 10.7346 19.3635 10.812 19.4827C11.0663 19.8711 11.5052 20.1279 12.0037 20.1279C12.7893 20.1279 13.4271 19.4901 13.4271 18.7045C13.4271 17.9189 12.7893 17.2811 12.0037 17.2811C11.5052 17.2811 11.0663 17.5378 10.8146 17.9279C10.7366 18.048 10.6031 18.1205 10.4599 18.1205C10.4599 18.1205 6.63366 18.1205 5.66246 18.1205ZM0.187379 26.3897C0.185086 26.3739 0.189762 26.358 0.200195 26.3459C0.210615 26.3339 0.225764 26.327 0.241693 26.327C2.56241 26.3273 4.90785 26.3276 6.91964 26.3279C6.9442 26.3279 6.96569 26.3444 6.97205 26.3682C6.97841 26.3919 6.96804 26.4169 6.94675 26.4292C6.37605 26.7587 4.58972 27.79 4.26657 27.9766C4.23357 27.9957 4.19613 28.0057 4.15802 28.0057C3.92601 28.0057 3.04038 28.0057 2.23884 28.0057C1.26567 28.0057 0.418665 27.3402 0.18833 26.3947C0.18833 26.3947 0.188577 26.3946 0.187379 26.3897Z" fill="url(#paint0_linear)"/>
<defs>
<linearGradient id="paint0_linear" x1="-4.47115" y1="5.46269" x2="38.2776" y2="10.1997" gradientUnits="userSpaceOnUse">
<stop stop-color="#3395C4"/>
<stop offset="1" stop-color="#3BE3D9"/>
</linearGradient>
</defs>
</svg>
